<mxfile host="app.diagrams.net" modified="2022-05-12T11:50:54.293Z" agent="5.0 (Macintosh; Intel Mac OS X 10_15_7) AppleWebKit/537.36 (KHTML, like Gecko) Chrome/101.0.4951.54 Safari/537.36" etag="1qigOvVFc_XbNFbObDmK" version="18.0.2" type="github">
  <diagram id="N0NOSJ63ES2Fyjb4Z62W" name="Page-1">
    <mxGraphModel dx="1186" dy="668" grid="0" gridSize="10" guides="1" tooltips="1" connect="1" arrows="1" fold="1" page="0" pageScale="1" pageWidth="827" pageHeight="1169" math="0" shadow="0">
      <root>
        <mxCell id="0" />
        <mxCell id="1" parent="0" />
        <mxCell id="yYqq2hkzmnppneqYEkR9-1" value="渠道字典" style="rounded=0;whiteSpace=wrap;html=1;" parent="1" vertex="1">
          <mxGeometry x="120" y="750" width="120" height="60" as="geometry" />
        </mxCell>
        <mxCell id="yYqq2hkzmnppneqYEkR9-2" value="展点销" style="rounded=0;whiteSpace=wrap;html=1;" parent="1" vertex="1">
          <mxGeometry x="110" y="330" width="120" height="60" as="geometry" />
        </mxCell>
        <mxCell id="yYqq2hkzmnppneqYEkR9-3" value="数据总线" style="rounded=0;whiteSpace=wrap;html=1;" parent="1" vertex="1">
          <mxGeometry x="100" y="220" width="690" height="60" as="geometry" />
        </mxCell>
        <mxCell id="yYqq2hkzmnppneqYEkR9-4" value="创意" style="rounded=0;whiteSpace=wrap;html=1;" parent="1" vertex="1">
          <mxGeometry x="110" y="550" width="120" height="60" as="geometry" />
        </mxCell>
        <mxCell id="yYqq2hkzmnppneqYEkR9-5" value="广告主" style="rounded=0;whiteSpace=wrap;html=1;" parent="1" vertex="1">
          <mxGeometry x="110" y="400" width="120" height="60" as="geometry" />
        </mxCell>
        <mxCell id="yYqq2hkzmnppneqYEkR9-6" value="广告计划" style="rounded=0;whiteSpace=wrap;html=1;" parent="1" vertex="1">
          <mxGeometry x="110" y="470" width="120" height="60" as="geometry" />
        </mxCell>
        <mxCell id="yYqq2hkzmnppneqYEkR9-7" value="数据漏斗" style="rounded=0;whiteSpace=wrap;html=1;" parent="1" vertex="1">
          <mxGeometry x="910" y="420" width="110" height="60" as="geometry" />
        </mxCell>
        <mxCell id="yYqq2hkzmnppneqYEkR9-8" value="渠道画像" style="rounded=0;whiteSpace=wrap;html=1;" parent="1" vertex="1">
          <mxGeometry x="910" y="530" width="120" height="60" as="geometry" />
        </mxCell>
        <mxCell id="yYqq2hkzmnppneqYEkR9-9" value="人群分层" style="rounded=0;whiteSpace=wrap;html=1;" parent="1" vertex="1">
          <mxGeometry x="270" y="750" width="120" height="60" as="geometry" />
        </mxCell>
        <mxCell id="yYqq2hkzmnppneqYEkR9-10" value="dpa/rta" style="rounded=0;whiteSpace=wrap;html=1;" parent="1" vertex="1">
          <mxGeometry x="100" y="30" width="120" height="60" as="geometry" />
        </mxCell>
        <mxCell id="yYqq2hkzmnppneqYEkR9-11" value="ocpx" style="rounded=0;whiteSpace=wrap;html=1;" parent="1" vertex="1">
          <mxGeometry x="231" y="30" width="120" height="60" as="geometry" />
        </mxCell>
        <mxCell id="yYqq2hkzmnppneqYEkR9-12" value="点击监测" style="rounded=0;whiteSpace=wrap;html=1;" parent="1" vertex="1">
          <mxGeometry x="260" y="400" width="120" height="60" as="geometry" />
        </mxCell>
        <mxCell id="yYqq2hkzmnppneqYEkR9-13" value="激活/唤端/登录/回访" style="rounded=0;whiteSpace=wrap;html=1;" parent="1" vertex="1">
          <mxGeometry x="400" y="400" width="120" height="60" as="geometry" />
        </mxCell>
        <mxCell id="yYqq2hkzmnppneqYEkR9-14" value="曝光/点击" style="rounded=0;whiteSpace=wrap;html=1;" parent="1" vertex="1">
          <mxGeometry x="550" y="400" width="120" height="60" as="geometry" />
        </mxCell>
        <mxCell id="yYqq2hkzmnppneqYEkR9-15" value="首购/复购" style="rounded=0;whiteSpace=wrap;html=1;" parent="1" vertex="1">
          <mxGeometry x="690" y="400" width="120" height="60" as="geometry" />
        </mxCell>
        <mxCell id="yYqq2hkzmnppneqYEkR9-16" value="场景还原" style="rounded=0;whiteSpace=wrap;html=1;" parent="1" vertex="1">
          <mxGeometry x="366" y="30" width="120" height="60" as="geometry" />
        </mxCell>
        <mxCell id="yYqq2hkzmnppneqYEkR9-17" value="1、渠道是什么&lt;br&gt;2、要包含哪些指标？&lt;br&gt;渠道模型标准化&lt;br&gt;全链路跟踪&lt;br&gt;渠道漏斗数据&lt;br&gt;多实验投放数据评估&lt;br&gt;渠道价值评估（短期和长期、即时和综合）" style="text;html=1;strokeColor=none;fillColor=none;align=left;verticalAlign=top;whiteSpace=wrap;rounded=0;" parent="1" vertex="1">
          <mxGeometry x="1050" y="570" width="470" height="120" as="geometry" />
        </mxCell>
        <mxCell id="b5pIPsqhdM-_OdkysjIm-1" value="智能分流" style="rounded=0;whiteSpace=wrap;html=1;" parent="1" vertex="1">
          <mxGeometry x="650" y="30" width="120" height="60" as="geometry" />
        </mxCell>
        <mxCell id="b5pIPsqhdM-_OdkysjIm-2" value="智能承接" style="rounded=0;whiteSpace=wrap;html=1;" parent="1" vertex="1">
          <mxGeometry x="510" y="30" width="120" height="60" as="geometry" />
        </mxCell>
        <mxCell id="b5pIPsqhdM-_OdkysjIm-3" value="渠道成本：广告投放成本，运营人力成本？&lt;br&gt;&lt;br&gt;渠道价值：用户价值--&amp;gt;到端、转化、风险&lt;br&gt;&lt;br&gt;+不同时段、素材、受众人群的价值评估&lt;br&gt;+&lt;br&gt;+未来预测" style="text;html=1;strokeColor=none;fillColor=none;align=left;verticalAlign=top;whiteSpace=wrap;rounded=0;" parent="1" vertex="1">
          <mxGeometry x="1070" y="690" width="340" height="100" as="geometry" />
        </mxCell>
        <mxCell id="49PT1sJJ4Nkw6kW9K1C4-41" style="edgeStyle=orthogonalEdgeStyle;rounded=0;orthogonalLoop=1;jettySize=auto;html=1;entryX=0.5;entryY=0;entryDx=0;entryDy=0;fontSize=10;" parent="1" source="49PT1sJJ4Nkw6kW9K1C4-1" target="49PT1sJJ4Nkw6kW9K1C4-6" edge="1">
          <mxGeometry relative="1" as="geometry">
            <Array as="points">
              <mxPoint x="265" y="1380" />
              <mxPoint x="538" y="1380" />
            </Array>
          </mxGeometry>
        </mxCell>
        <mxCell id="49PT1sJJ4Nkw6kW9K1C4-42" value="展点销数据报表" style="edgeLabel;html=1;align=center;verticalAlign=middle;resizable=0;points=[];fontSize=10;" parent="49PT1sJJ4Nkw6kW9K1C4-41" vertex="1" connectable="0">
          <mxGeometry x="0.1692" y="-1" relative="1" as="geometry">
            <mxPoint x="-26" y="-3" as="offset" />
          </mxGeometry>
        </mxCell>
        <mxCell id="49PT1sJJ4Nkw6kW9K1C4-1" value="" style="rounded=1;whiteSpace=wrap;html=1;" parent="1" vertex="1">
          <mxGeometry x="180" y="1200" width="170" height="170" as="geometry" />
        </mxCell>
        <mxCell id="49PT1sJJ4Nkw6kW9K1C4-25" style="edgeStyle=orthogonalEdgeStyle;rounded=0;orthogonalLoop=1;jettySize=auto;html=1;fontSize=10;" parent="1" source="49PT1sJJ4Nkw6kW9K1C4-2" target="49PT1sJJ4Nkw6kW9K1C4-1" edge="1">
          <mxGeometry relative="1" as="geometry" />
        </mxCell>
        <mxCell id="49PT1sJJ4Nkw6kW9K1C4-2" value="C端用户" style="shape=umlActor;verticalLabelPosition=bottom;verticalAlign=top;html=1;outlineConnect=0;" parent="1" vertex="1">
          <mxGeometry x="54" y="1255" width="30" height="60" as="geometry" />
        </mxCell>
        <mxCell id="49PT1sJJ4Nkw6kW9K1C4-31" style="edgeStyle=orthogonalEdgeStyle;rounded=0;orthogonalLoop=1;jettySize=auto;html=1;fontSize=10;" parent="1" source="49PT1sJJ4Nkw6kW9K1C4-4" target="49PT1sJJ4Nkw6kW9K1C4-6" edge="1">
          <mxGeometry relative="1" as="geometry">
            <Array as="points">
              <mxPoint x="639" y="1398" />
              <mxPoint x="538" y="1398" />
            </Array>
          </mxGeometry>
        </mxCell>
        <mxCell id="49PT1sJJ4Nkw6kW9K1C4-43" value="智能承接、智能分流" style="edgeLabel;html=1;align=center;verticalAlign=middle;resizable=0;points=[];fontSize=10;" parent="49PT1sJJ4Nkw6kW9K1C4-31" vertex="1" connectable="0">
          <mxGeometry x="0.08" y="1" relative="1" as="geometry">
            <mxPoint x="17" as="offset" />
          </mxGeometry>
        </mxCell>
        <mxCell id="49PT1sJJ4Nkw6kW9K1C4-4" value="" style="rounded=1;whiteSpace=wrap;html=1;" parent="1" vertex="1">
          <mxGeometry x="545" y="1203" width="240" height="170" as="geometry" />
        </mxCell>
        <mxCell id="49PT1sJJ4Nkw6kW9K1C4-5" value="巨浪RTA&amp;amp;DPA服务" style="rounded=0;whiteSpace=wrap;html=1;" parent="1" vertex="1">
          <mxGeometry x="142" y="1419" width="120" height="60" as="geometry" />
        </mxCell>
        <mxCell id="49PT1sJJ4Nkw6kW9K1C4-39" style="edgeStyle=orthogonalEdgeStyle;rounded=0;orthogonalLoop=1;jettySize=auto;html=1;entryX=0.591;entryY=0.022;entryDx=0;entryDy=0;entryPerimeter=0;fontSize=10;startArrow=classicThin;startFill=1;" parent="1" edge="1">
          <mxGeometry relative="1" as="geometry">
            <mxPoint x="560" y="1482" as="sourcePoint" />
            <mxPoint x="559.79" y="1638.98" as="targetPoint" />
            <Array as="points">
              <mxPoint x="560" y="1526" />
              <mxPoint x="560" y="1526" />
            </Array>
          </mxGeometry>
        </mxCell>
        <mxCell id="49PT1sJJ4Nkw6kW9K1C4-46" value="实时业务数据" style="edgeLabel;html=1;align=center;verticalAlign=middle;resizable=0;points=[];fontSize=10;" parent="49PT1sJJ4Nkw6kW9K1C4-39" vertex="1" connectable="0">
          <mxGeometry x="-0.1157" relative="1" as="geometry">
            <mxPoint y="14" as="offset" />
          </mxGeometry>
        </mxCell>
        <mxCell id="49PT1sJJ4Nkw6kW9K1C4-6" value="二三方服务" style="rounded=0;whiteSpace=wrap;html=1;" parent="1" vertex="1">
          <mxGeometry x="478" y="1422" width="120" height="60" as="geometry" />
        </mxCell>
        <mxCell id="49PT1sJJ4Nkw6kW9K1C4-7" value="" style="rounded=0;whiteSpace=wrap;html=1;" parent="1" vertex="1">
          <mxGeometry x="130" y="1637" width="690" height="90" as="geometry" />
        </mxCell>
        <mxCell id="49PT1sJJ4Nkw6kW9K1C4-8" value="&lt;font style=&quot;font-size: 10px;&quot;&gt;业务数据库&lt;/font&gt;" style="shape=cylinder3;whiteSpace=wrap;html=1;boundedLbl=1;backgroundOutline=1;size=15;" parent="1" vertex="1">
          <mxGeometry x="435" y="1659" width="70" height="50" as="geometry" />
        </mxCell>
        <mxCell id="49PT1sJJ4Nkw6kW9K1C4-9" value="ODPS" style="shape=cylinder3;whiteSpace=wrap;html=1;boundedLbl=1;backgroundOutline=1;size=15;" parent="1" vertex="1">
          <mxGeometry x="264" y="1657" width="60" height="50" as="geometry" />
        </mxCell>
        <mxCell id="49PT1sJJ4Nkw6kW9K1C4-10" value="协议解析" style="rounded=0;whiteSpace=wrap;html=1;fontSize=10;" parent="1" vertex="1">
          <mxGeometry x="565" y="1253" width="20" height="110" as="geometry" />
        </mxCell>
        <mxCell id="49PT1sJJ4Nkw6kW9K1C4-11" value="实时上报" style="rounded=0;whiteSpace=wrap;html=1;fontSize=10;" parent="1" vertex="1">
          <mxGeometry x="614" y="1253" width="20" height="110" as="geometry" />
        </mxCell>
        <mxCell id="49PT1sJJ4Nkw6kW9K1C4-28" style="edgeStyle=orthogonalEdgeStyle;rounded=0;orthogonalLoop=1;jettySize=auto;html=1;fontSize=10;exitX=0.5;exitY=1;exitDx=0;exitDy=0;" parent="1" source="49PT1sJJ4Nkw6kW9K1C4-12" target="49PT1sJJ4Nkw6kW9K1C4-24" edge="1">
          <mxGeometry relative="1" as="geometry">
            <Array as="points">
              <mxPoint x="669" y="1389" />
              <mxPoint x="694" y="1389" />
            </Array>
          </mxGeometry>
        </mxCell>
        <mxCell id="49PT1sJJ4Nkw6kW9K1C4-44" value="场景还原" style="edgeLabel;html=1;align=center;verticalAlign=middle;resizable=0;points=[];fontSize=10;" parent="49PT1sJJ4Nkw6kW9K1C4-28" vertex="1" connectable="0">
          <mxGeometry x="0.4432" relative="1" as="geometry">
            <mxPoint as="offset" />
          </mxGeometry>
        </mxCell>
        <mxCell id="49PT1sJJ4Nkw6kW9K1C4-12" value="场景还原" style="rounded=0;whiteSpace=wrap;html=1;fontSize=10;" parent="1" vertex="1">
          <mxGeometry x="659" y="1253" width="20" height="110" as="geometry" />
        </mxCell>
        <mxCell id="49PT1sJJ4Nkw6kW9K1C4-13" value="智能承接" style="rounded=0;whiteSpace=wrap;html=1;fontSize=10;" parent="1" vertex="1">
          <mxGeometry x="705" y="1253" width="20" height="110" as="geometry" />
        </mxCell>
        <mxCell id="49PT1sJJ4Nkw6kW9K1C4-14" value="标准行为埋点" style="rounded=0;whiteSpace=wrap;html=1;fontSize=10;" parent="1" vertex="1">
          <mxGeometry x="751" y="1253" width="20" height="110" as="geometry" />
        </mxCell>
        <mxCell id="49PT1sJJ4Nkw6kW9K1C4-15" value="APP" style="text;html=1;strokeColor=none;fillColor=none;align=center;verticalAlign=middle;whiteSpace=wrap;rounded=0;fontSize=10;" parent="1" vertex="1">
          <mxGeometry x="625" y="1213" width="60" height="30" as="geometry" />
        </mxCell>
        <mxCell id="49PT1sJJ4Nkw6kW9K1C4-16" value="媒体" style="text;html=1;strokeColor=none;fillColor=none;align=center;verticalAlign=middle;whiteSpace=wrap;rounded=0;fontSize=10;" parent="1" vertex="1">
          <mxGeometry x="230" y="1210" width="60" height="30" as="geometry" />
        </mxCell>
        <mxCell id="49PT1sJJ4Nkw6kW9K1C4-18" value="" style="edgeStyle=orthogonalEdgeStyle;rounded=0;orthogonalLoop=1;jettySize=auto;html=1;fontSize=10;" parent="1" source="49PT1sJJ4Nkw6kW9K1C4-17" target="49PT1sJJ4Nkw6kW9K1C4-5" edge="1">
          <mxGeometry relative="1" as="geometry" />
        </mxCell>
        <mxCell id="49PT1sJJ4Nkw6kW9K1C4-20" style="edgeStyle=orthogonalEdgeStyle;rounded=0;orthogonalLoop=1;jettySize=auto;html=1;fontSize=10;" parent="1" source="49PT1sJJ4Nkw6kW9K1C4-17" target="49PT1sJJ4Nkw6kW9K1C4-19" edge="1">
          <mxGeometry relative="1" as="geometry" />
        </mxCell>
        <mxCell id="49PT1sJJ4Nkw6kW9K1C4-17" value="广告" style="rounded=0;whiteSpace=wrap;html=1;fontSize=10;" parent="1" vertex="1">
          <mxGeometry x="197.5" y="1334" width="134.5" height="26" as="geometry" />
        </mxCell>
        <mxCell id="49PT1sJJ4Nkw6kW9K1C4-21" style="edgeStyle=orthogonalEdgeStyle;rounded=0;orthogonalLoop=1;jettySize=auto;html=1;fontSize=10;entryX=0.332;entryY=-0.011;entryDx=0;entryDy=0;entryPerimeter=0;" parent="1" edge="1">
          <mxGeometry relative="1" as="geometry">
            <mxPoint x="344" y="1479" as="sourcePoint" />
            <mxPoint x="344.0799999999999" y="1636.0100000000002" as="targetPoint" />
            <Array as="points">
              <mxPoint x="344" y="1518" />
              <mxPoint x="344" y="1518" />
            </Array>
          </mxGeometry>
        </mxCell>
        <mxCell id="49PT1sJJ4Nkw6kW9K1C4-57" value="点击事件" style="edgeLabel;html=1;align=center;verticalAlign=middle;resizable=0;points=[];fontSize=10;" parent="49PT1sJJ4Nkw6kW9K1C4-21" vertex="1" connectable="0">
          <mxGeometry x="-0.0128" y="1" relative="1" as="geometry">
            <mxPoint as="offset" />
          </mxGeometry>
        </mxCell>
        <mxCell id="49PT1sJJ4Nkw6kW9K1C4-19" value="巨浪事件接收与OCPX" style="rounded=0;whiteSpace=wrap;html=1;" parent="1" vertex="1">
          <mxGeometry x="299" y="1419" width="120" height="60" as="geometry" />
        </mxCell>
        <mxCell id="49PT1sJJ4Nkw6kW9K1C4-23" value="&lt;span style=&quot;font-size: 10px;&quot;&gt;REDIS缓存&lt;/span&gt;" style="shape=cylinder3;whiteSpace=wrap;html=1;boundedLbl=1;backgroundOutline=1;size=15;" parent="1" vertex="1">
          <mxGeometry x="612" y="1657" width="70" height="50" as="geometry" />
        </mxCell>
        <mxCell id="49PT1sJJ4Nkw6kW9K1C4-24" value="场景还原服务" style="rounded=0;whiteSpace=wrap;html=1;" parent="1" vertex="1">
          <mxGeometry x="632" y="1426" width="120" height="60" as="geometry" />
        </mxCell>
        <mxCell id="49PT1sJJ4Nkw6kW9K1C4-30" value="" style="endArrow=none;html=1;rounded=0;fontSize=10;exitX=0.5;exitY=1;exitDx=0;exitDy=0;entryX=0.816;entryY=0.011;entryDx=0;entryDy=0;entryPerimeter=0;endFill=0;startArrow=classic;startFill=1;" parent="1" source="49PT1sJJ4Nkw6kW9K1C4-24" target="49PT1sJJ4Nkw6kW9K1C4-7" edge="1">
          <mxGeometry width="50" height="50" relative="1" as="geometry">
            <mxPoint x="572" y="1489" as="sourcePoint" />
            <mxPoint x="752" y="1636" as="targetPoint" />
          </mxGeometry>
        </mxCell>
        <mxCell id="49PT1sJJ4Nkw6kW9K1C4-38" value="点击还原" style="edgeLabel;html=1;align=center;verticalAlign=middle;resizable=0;points=[];fontSize=10;" parent="49PT1sJJ4Nkw6kW9K1C4-30" vertex="1" connectable="0">
          <mxGeometry x="0.0265" y="1" relative="1" as="geometry">
            <mxPoint as="offset" />
          </mxGeometry>
        </mxCell>
        <mxCell id="49PT1sJJ4Nkw6kW9K1C4-33" value="" style="endArrow=classic;html=1;rounded=0;fontSize=10;exitX=0.5;exitY=1;exitDx=0;exitDy=0;" parent="1" source="49PT1sJJ4Nkw6kW9K1C4-14" edge="1">
          <mxGeometry width="50" height="50" relative="1" as="geometry">
            <mxPoint x="860" y="1358" as="sourcePoint" />
            <mxPoint x="764" y="1637" as="targetPoint" />
          </mxGeometry>
        </mxCell>
        <mxCell id="49PT1sJJ4Nkw6kW9K1C4-45" value="全链路埋点上报" style="edgeLabel;html=1;align=center;verticalAlign=middle;resizable=0;points=[];fontSize=10;" parent="49PT1sJJ4Nkw6kW9K1C4-33" vertex="1" connectable="0">
          <mxGeometry x="0.1569" y="-1" relative="1" as="geometry">
            <mxPoint x="6" y="40" as="offset" />
          </mxGeometry>
        </mxCell>
        <mxCell id="49PT1sJJ4Nkw6kW9K1C4-34" value="" style="shape=flexArrow;endArrow=classic;html=1;rounded=0;fontSize=10;" parent="1" edge="1">
          <mxGeometry width="50" height="50" relative="1" as="geometry">
            <mxPoint x="377" y="1297" as="sourcePoint" />
            <mxPoint x="529" y="1297" as="targetPoint" />
          </mxGeometry>
        </mxCell>
        <mxCell id="49PT1sJJ4Nkw6kW9K1C4-35" value="唤端" style="text;html=1;strokeColor=none;fillColor=none;align=center;verticalAlign=middle;whiteSpace=wrap;rounded=0;fontSize=10;" parent="1" vertex="1">
          <mxGeometry x="415" y="1264" width="60" height="30" as="geometry" />
        </mxCell>
        <mxCell id="49PT1sJJ4Nkw6kW9K1C4-37" value="" style="endArrow=none;html=1;rounded=0;fontSize=10;exitX=0.5;exitY=1;exitDx=0;exitDy=0;entryX=0.107;entryY=0.011;entryDx=0;entryDy=0;entryPerimeter=0;startArrow=classic;startFill=1;endFill=0;" parent="1" source="49PT1sJJ4Nkw6kW9K1C4-5" target="49PT1sJJ4Nkw6kW9K1C4-7" edge="1">
          <mxGeometry width="50" height="50" relative="1" as="geometry">
            <mxPoint x="572" y="1489" as="sourcePoint" />
            <mxPoint x="622" y="1439" as="targetPoint" />
          </mxGeometry>
        </mxCell>
        <mxCell id="49PT1sJJ4Nkw6kW9K1C4-40" value="出价系数&lt;br&gt;动态商品池" style="edgeLabel;html=1;align=center;verticalAlign=middle;resizable=0;points=[];fontSize=10;" parent="49PT1sJJ4Nkw6kW9K1C4-37" vertex="1" connectable="0">
          <mxGeometry x="-0.0438" y="-1" relative="1" as="geometry">
            <mxPoint as="offset" />
          </mxGeometry>
        </mxCell>
        <mxCell id="49PT1sJJ4Nkw6kW9K1C4-47" value="头条" style="rounded=0;whiteSpace=wrap;html=1;fontSize=10;" parent="1" vertex="1">
          <mxGeometry x="192" y="1243" width="44" height="31" as="geometry" />
        </mxCell>
        <mxCell id="49PT1sJJ4Nkw6kW9K1C4-50" value="网盟" style="rounded=0;whiteSpace=wrap;html=1;fontSize=10;" parent="1" vertex="1">
          <mxGeometry x="243" y="1243" width="44" height="31" as="geometry" />
        </mxCell>
        <mxCell id="49PT1sJJ4Nkw6kW9K1C4-51" value="广点通" style="rounded=0;whiteSpace=wrap;html=1;fontSize=10;" parent="1" vertex="1">
          <mxGeometry x="295" y="1243" width="44" height="31" as="geometry" />
        </mxCell>
        <mxCell id="49PT1sJJ4Nkw6kW9K1C4-52" value="华为" style="rounded=0;whiteSpace=wrap;html=1;fontSize=10;" parent="1" vertex="1">
          <mxGeometry x="192" y="1284" width="44" height="31" as="geometry" />
        </mxCell>
        <mxCell id="49PT1sJJ4Nkw6kW9K1C4-53" value="小米" style="rounded=0;whiteSpace=wrap;html=1;fontSize=10;" parent="1" vertex="1">
          <mxGeometry x="243" y="1284" width="44" height="31" as="geometry" />
        </mxCell>
        <mxCell id="49PT1sJJ4Nkw6kW9K1C4-54" value="..." style="rounded=0;whiteSpace=wrap;html=1;fontSize=10;" parent="1" vertex="1">
          <mxGeometry x="295" y="1284" width="44" height="31" as="geometry" />
        </mxCell>
        <mxCell id="49PT1sJJ4Nkw6kW9K1C4-55" style="edgeStyle=orthogonalEdgeStyle;rounded=0;orthogonalLoop=1;jettySize=auto;html=1;fontSize=10;entryX=0.37;entryY=-0.006;entryDx=0;entryDy=0;entryPerimeter=0;endArrow=none;endFill=0;startArrow=classic;startFill=1;" parent="1" edge="1">
          <mxGeometry relative="1" as="geometry">
            <mxPoint x="381" y="1480" as="sourcePoint" />
            <mxPoint x="381.29999999999995" y="1636.46" as="targetPoint" />
            <Array as="points">
              <mxPoint x="381" y="1523" />
              <mxPoint x="381" y="1523" />
            </Array>
          </mxGeometry>
        </mxCell>
        <mxCell id="49PT1sJJ4Nkw6kW9K1C4-58" value="OCPX" style="edgeLabel;html=1;align=center;verticalAlign=middle;resizable=0;points=[];fontSize=10;" parent="49PT1sJJ4Nkw6kW9K1C4-55" vertex="1" connectable="0">
          <mxGeometry x="-0.4439" relative="1" as="geometry">
            <mxPoint as="offset" />
          </mxGeometry>
        </mxCell>
        <mxCell id="49PT1sJJ4Nkw6kW9K1C4-59" value="" style="endArrow=classic;html=1;rounded=0;fontSize=10;" parent="1" edge="1">
          <mxGeometry width="50" height="50" relative="1" as="geometry">
            <mxPoint x="515" y="1481" as="sourcePoint" />
            <mxPoint x="515" y="1636" as="targetPoint" />
          </mxGeometry>
        </mxCell>
        <mxCell id="49PT1sJJ4Nkw6kW9K1C4-60" value="展点销数据报表" style="edgeLabel;html=1;align=center;verticalAlign=middle;resizable=0;points=[];fontSize=10;" parent="49PT1sJJ4Nkw6kW9K1C4-59" vertex="1" connectable="0">
          <mxGeometry x="-0.1806" y="-3" relative="1" as="geometry">
            <mxPoint as="offset" />
          </mxGeometry>
        </mxCell>
        <mxCell id="NhB02oHzXUKvnQSvV_H7-1" value="" style="rounded=0;whiteSpace=wrap;html=1;dashed=1;" vertex="1" parent="1">
          <mxGeometry x="1050" y="1340" width="723" height="232" as="geometry" />
        </mxCell>
        <mxCell id="NhB02oHzXUKvnQSvV_H7-3" value="渠道标准模型" style="rounded=0;whiteSpace=wrap;html=1;" vertex="1" parent="1">
          <mxGeometry x="1066" y="1379" width="120" height="60" as="geometry" />
        </mxCell>
        <mxCell id="NhB02oHzXUKvnQSvV_H7-4" value="用户数据总线" style="rounded=0;whiteSpace=wrap;html=1;" vertex="1" parent="1">
          <mxGeometry x="1200" y="1379" width="120" height="60" as="geometry" />
        </mxCell>
      </root>
    </mxGraphModel>
  </diagram>
</mxfile>
